<svg width="273" height="40" viewBox="0 0 273 40" fill="none" xmlns="http://www.w3.org/2000/svg">
<path d="M20.6599 4.19946H35.9723V35.0695H20.6599V4.19946Z" fill="#FF5F00"/>
<path d="M21.632 19.6347C21.632 13.3626 24.257 7.79932 28.2915 4.19954C25.3265 1.58163 21.5835 0 17.5002 0C7.82627 0 0 8.78094 0 19.6347C0 30.4884 7.82627 39.2694 17.5 39.2694C21.5833 39.2694 25.3263 37.6878 28.2915 35.0696C24.257 31.5245 21.632 25.9068 21.632 19.6347Z" fill="#EB001B"/>
<path d="M56.6321 19.6347C56.6321 30.4882 48.8058 39.2694 39.1321 39.2694C35.0488 39.2694 31.3058 37.6878 28.3406 35.0696C32.4239 31.4701 35.0003 25.9068 35.0003 19.6347C35.0003 13.3626 32.3752 7.79932 28.3406 4.19954C31.3056 1.58163 35.0488 0 39.1321 0C48.8058 0 56.6321 8.8356 56.6321 19.6347Z" fill="#F79E1B"/>
<path fill-rule="evenodd" clip-rule="evenodd" d="M215.976 22.4397C215.976 31.7345 209.266 39.2694 200.988 39.2694C192.71 39.2694 186 31.7345 186 22.4397C186 13.1448 192.71 5.60994 200.988 5.60994C209.266 5.60994 215.976 13.1448 215.976 22.4397Z" fill="#ED342B"/>
<path fill-rule="evenodd" clip-rule="evenodd" d="M200.988 29.6487C197.636 21.1157 195.178 13.1442 195.178 13.1442H190.038C190.038 13.1442 193.166 23.3756 198.977 36.1707H203C208.81 23.3756 211.938 13.1442 211.938 13.1442L206.798 13.1442C206.798 13.1442 204.341 21.1157 200.988 29.6487Z" fill="#FEFEFE"/>
<path fill-rule="evenodd" clip-rule="evenodd" d="M265.534 21.5619C262.629 21.5619 262.406 25.0751 262.406 25.0751L268.662 25.0751C268.662 25.0751 268.439 21.5619 265.534 21.5619ZM272.461 28.5875L262.406 28.5875C262.406 28.5875 262.629 32.3518 267.098 32.3518C269.333 32.3518 271.567 31.5983 271.567 31.5983L272.014 35.6129C272.014 35.6129 269.78 36.6172 266.651 36.6172C262.182 36.6172 258.16 34.1077 258.16 27.0821C258.16 21.5619 261.289 18.0491 265.758 18.0491C272.461 18.0491 272.908 25.5766 272.461 28.5875ZM238.269 22.6587L238.961 18.5158C238.961 18.5158 233.619 16.6954 229.276 20.069V36.6407H233.888V23.1761C235.733 21.6232 238.269 22.6587 238.269 22.6587ZM219.047 21.5619C216.142 21.5619 215.919 25.0751 215.919 25.0751H222.175C222.175 25.0751 221.952 21.5619 219.047 21.5619ZM225.973 28.5875H215.919C215.919 28.5875 216.142 32.3518 220.611 32.3518C222.845 32.3518 225.08 31.5983 225.08 31.5983L225.527 35.6129C225.527 35.6129 223.292 36.6172 220.164 36.6172C215.695 36.6172 211.672 34.1077 211.672 27.0821C211.672 21.5619 214.801 18.0491 219.27 18.0491C225.973 18.0491 226.42 25.5766 225.973 28.5875ZM249.524 30.3071C247.182 23.9958 246.012 18.0521 246.012 18.0521L241.329 18.0527C241.329 18.0527 243.671 28.2032 247.652 36.6141H251.396C255.377 28.2032 257.719 18.0542 257.719 18.0542H253.036C253.036 18.0542 251.866 23.9958 249.524 30.3071Z" fill="#03435F"/>
<path d="M123.047 16.3705C122.994 21.0594 126.771 23.6758 129.616 25.2316C132.54 26.8277 133.522 27.8513 133.51 29.2788C133.489 31.4633 131.178 32.4274 129.017 32.4649C125.245 32.5304 123.052 31.3224 121.309 30.4087L119.95 37.5418C121.699 38.4461 124.938 39.2348 128.297 39.2694C136.181 39.2694 141.338 34.903 141.366 28.1331C141.397 19.5411 130.774 19.0655 130.847 15.2251C130.872 14.0606 131.862 12.818 134.032 12.502C135.106 12.3424 138.072 12.2203 141.433 13.9572L142.753 7.05579C140.945 6.31719 138.621 5.60994 135.728 5.60994C128.308 5.60994 123.089 10.0358 123.047 16.3705ZM155.432 6.2044C153.992 6.2044 152.779 7.14658 152.238 8.59242L140.976 38.7625H148.854L150.422 33.9014H160.049L160.958 38.7625H167.902L161.842 6.2044H155.432ZM156.534 14.9996L158.808 27.2255H152.581L156.534 14.9996ZM113.495 6.20481L107.285 38.7621H114.792L120.999 6.20399L113.495 6.20481ZM102.389 6.20481L94.575 28.3647L91.4142 9.52239C91.0433 7.41898 89.5787 6.2044 87.9522 6.2044H75.1789L75 7.14984C77.6223 7.78827 80.6017 8.81799 82.4067 9.91978C83.5114 10.5928 83.8264 11.1812 84.1893 12.7805L90.176 38.7625H98.1093L110.272 6.2044L102.389 6.20481Z" fill="url(#paint0_linear_27_1145)"/>
<defs>
<linearGradient id="paint0_linear_27_1145" x1="4346.06" y1="106.79" x2="4455.36" y2="-3349.38" gradientUnits="userSpaceOnUse">
<stop stop-color="#222357"/>
<stop offset="1" stop-color="#254AA5"/>
</linearGradient>
</defs>
</svg>
