<svg width="34" height="32" viewBox="0 0 34 32" fill="none" xmlns="http://www.w3.org/2000/svg">
<path d="M17.3124 31.1564C16.8729 31.5953 16.2772 31.8418 15.6561 31.8418C15.035 31.8418 14.4393 31.5953 13.9999 31.1564L0.718641 17.8751C0.279733 17.4357 0.0332031 16.84 0.0332031 16.2189C0.0332031 15.5978 0.279733 15.0021 0.718641 14.5626L13.9999 1.28136C14.4441 0.866855 15.0319 0.641041 15.6394 0.651535C16.2469 0.662029 16.8265 0.908008 17.2561 1.33761C17.6857 1.76723 17.9317 2.34689 17.9422 2.95437C17.9527 3.56184 17.7269 4.14966 17.3124 4.59386L8.03114 13.8751H31.2811C31.9027 13.8751 32.4989 14.122 32.9384 14.5616C33.378 15.0011 33.6249 15.5973 33.6249 16.2189C33.6249 16.8405 33.378 17.4366 32.9384 17.8761C32.4989 18.3157 31.9027 18.5626 31.2811 18.5626H8.03114L17.3124 27.8439C17.7513 28.2833 17.9978 28.879 17.9978 29.5001C17.9978 30.1212 17.7513 30.7169 17.3124 31.1564Z" fill="#1B1A1A"/>
</svg>
