<svg width="60" height="60" viewBox="0 0 60 60" fill="none" xmlns="http://www.w3.org/2000/svg">
<rect width="60" height="60" rx="15" fill="#D9D9D9"/>
<path d="M37.8125 16.25C34.5859 16.25 31.7609 17.6375 30 19.9828C28.2391 17.6375 25.4141 16.25 22.1875 16.25C19.6191 16.2529 17.1567 17.2745 15.3406 19.0906C13.5245 20.9067 12.5029 23.3691 12.5 25.9375C12.5 36.875 28.7172 45.7281 29.4078 46.0938C29.5898 46.1917 29.7933 46.2429 30 46.2429C30.2067 46.2429 30.4102 46.1917 30.5922 46.0938C31.2828 45.7281 47.5 36.875 47.5 25.9375C47.4971 23.3691 46.4755 20.9067 44.6594 19.0906C42.8433 17.2745 40.3809 16.2529 37.8125 16.25ZM30 43.5625C27.1469 41.9 15 34.3266 15 25.9375C15.0025 24.032 15.7605 22.2053 17.1079 20.8579C18.4553 19.5105 20.282 18.7525 22.1875 18.75C25.2266 18.75 27.7781 20.3688 28.8438 22.9688C28.9379 23.198 29.0981 23.3941 29.304 23.5321C29.5099 23.6701 29.7521 23.7438 30 23.7438C30.2479 23.7438 30.4901 23.6701 30.696 23.5321C30.9019 23.3941 31.0621 23.198 31.1562 22.9688C32.2219 20.3641 34.7734 18.75 37.8125 18.75C39.718 18.7525 41.5447 19.5105 42.8921 20.8579C44.2395 22.2053 44.9975 24.032 45 25.9375C45 34.3141 32.85 41.8984 30 43.5625Z" fill="#1B1A1A"/>
</svg>
