<svg width="36" height="31" viewBox="0 0 36 31" fill="none" xmlns="http://www.w3.org/2000/svg">
<path d="M25.8125 0.25C22.5859 0.25 19.7609 1.6375 18 3.98281C16.2391 1.6375 13.4141 0.25 10.1875 0.25C7.6191 0.252895 5.15673 1.27447 3.3406 3.0906C1.52447 4.90673 0.502895 7.3691 0.5 9.9375C0.5 20.875 16.7172 29.7281 17.4078 30.0938C17.5898 30.1917 17.7933 30.2429 18 30.2429C18.2067 30.2429 18.4102 30.1917 18.5922 30.0938C19.2828 29.7281 35.5 20.875 35.5 9.9375C35.4971 7.3691 34.4755 4.90673 32.6594 3.0906C30.8433 1.27447 28.3809 0.252895 25.8125 0.25ZM18 27.5625C15.1469 25.9 3 18.3266 3 9.9375C3.00248 8.03202 3.76053 6.20529 5.10791 4.85791C6.45529 3.51053 8.28202 2.75248 10.1875 2.75C13.2266 2.75 15.7781 4.36875 16.8438 6.96875C16.9379 7.19801 17.0981 7.3941 17.304 7.53211C17.5099 7.67011 17.7521 7.74379 18 7.74379C18.2479 7.74379 18.4901 7.67011 18.696 7.53211C18.9019 7.3941 19.0621 7.19801 19.1562 6.96875C20.2219 4.36406 22.7734 2.75 25.8125 2.75C27.718 2.75248 29.5447 3.51053 30.8921 4.85791C32.2395 6.20529 32.9975 8.03202 33 9.9375C33 18.3141 20.85 25.8984 18 27.5625Z" fill="#1B1A1A"/>
</svg>
