<svg width="40" height="40" viewBox="0 0 40 40" fill="none" xmlns="http://www.w3.org/2000/svg">
<path d="M38.6667 38.6667L28 28M17.3334 33.3333C15.2322 33.3333 13.1516 32.9195 11.2104 32.1154C9.26923 31.3113 7.5054 30.1328 6.01967 28.6471C4.53393 27.1613 3.35538 25.3975 2.5513 23.4563C1.74723 21.5151 1.33337 19.4345 1.33337 17.3333C1.33337 15.2322 1.74723 13.1516 2.5513 11.2104C3.35538 9.2692 4.53393 7.50537 6.01967 6.01964C7.5054 4.5339 9.26923 3.35535 11.2104 2.55127C13.1516 1.7472 15.2322 1.33334 17.3334 1.33334C21.5768 1.33334 25.6465 3.01905 28.6471 6.01964C31.6477 9.02022 33.3334 13.0899 33.3334 17.3333C33.3334 21.5768 31.6477 25.6465 28.6471 28.6471C25.6465 31.6476 21.5768 33.3333 17.3334 33.3333Z" stroke="#1B1A1A" stroke-width="2.66667"/>
</svg>
