<svg width="60" height="60" viewBox="0 0 60 60" fill="none" xmlns="http://www.w3.org/2000/svg">
<rect width="60" height="60" rx="15" fill="#D9D9D9"/>
<path d="M48.6667 48.6667L38 38M27.3333 43.3333C25.2322 43.3333 23.1516 42.9195 21.2104 42.1154C19.2692 41.3113 17.5054 40.1328 16.0196 38.6471C14.5339 37.1613 13.3553 35.3975 12.5513 33.4563C11.7472 31.5151 11.3333 29.4345 11.3333 27.3333C11.3333 25.2322 11.7472 23.1516 12.5513 21.2104C13.3553 19.2692 14.5339 17.5054 16.0196 16.0196C17.5054 14.5339 19.2692 13.3553 21.2104 12.5513C23.1516 11.7472 25.2322 11.3333 27.3333 11.3333C31.5768 11.3333 35.6465 13.0191 38.6471 16.0196C41.6476 19.0202 43.3333 23.0899 43.3333 27.3333C43.3333 31.5768 41.6476 35.6465 38.6471 38.6471C35.6465 41.6476 31.5768 43.3333 27.3333 43.3333Z" stroke="#1B1A1A" stroke-width="2.66667"/>
</svg>
